<?xml version="1.0" encoding="UTF-8"?>
<svg width="752pt" height="752pt" version="1.1" viewBox="0 0 752 752" xmlns="http://www.w3.org/2000/svg">
 <path d="m186.57 553.59v-59.195c0-6.5391 5.3008-11.84 11.84-11.84 6.5391 0 11.84 5.3008 11.84 11.84v47.355h47.355c6.5391 0 11.84 5.3008 11.84 11.84s-5.3008 11.84-11.84 11.84h-59.195c-6.5391 0-11.84-5.3008-11.84-11.84zm367.02 11.84h-59.195c-6.5391 0-11.84-5.3008-11.84-11.84s5.3008-11.84 11.84-11.84h47.355v-47.355c0-6.5391 5.3008-11.84 11.84-11.84s11.84 5.3008 11.84 11.84v59.195c0 6.5391-5.3008 11.84-11.84 11.84zm11.84-367.02v59.195c0 6.5391-5.3008 11.84-11.84 11.84s-11.84-5.3008-11.84-11.84v-47.355h-47.355c-6.5391 0-11.84-5.3008-11.84-11.84 0-6.5391 5.3008-11.84 11.84-11.84h59.195c6.5391 0 11.84 5.3008 11.84 11.84zm-367.02-11.84h59.195c6.5391 0 11.84 5.3008 11.84 11.84 0 6.5391-5.3008 11.84-11.84 11.84h-47.355v47.355c0 6.5391-5.3008 11.84-11.84 11.84-6.5391 0-11.84-5.3008-11.84-11.84v-59.195c0-6.5391 5.3008-11.84 11.84-11.84zm71.035 71.035h213.11c6.5391 0 11.84 5.3008 11.84 11.84v213.11c0 6.5391-5.3008 11.84-11.84 11.84h-213.11c-6.5391 0-11.84-5.3008-11.84-11.84v-213.11c0-6.5391 5.3008-11.84 11.84-11.84zm11.84 23.68v189.43h189.43v-189.43zm23.68 23.68h142.07v142.07h-142.07z" fill-rule="evenodd"/>
</svg>
